<mxfile host="Electron" modified="2024-08-13T01:00:56.867Z" agent="Mozilla/5.0 (Windows NT 10.0; Win64; x64) AppleWebKit/537.36 (KHTML, like Gecko) draw.io/21.7.5 Chrome/114.0.5735.289 Electron/25.8.1 Safari/537.36" etag="Tnnp0RCdFLBwi28BgSsw" version="21.7.5" type="device">
  <diagram name="Page-1" id="HVN4WzkarxbkS2Vz0N3N">
    <mxGraphModel dx="1687" dy="1893" grid="1" gridSize="10" guides="1" tooltips="1" connect="1" arrows="1" fold="1" page="1" pageScale="1" pageWidth="1600" pageHeight="900" math="0" shadow="0">
      <root>
        <mxCell id="0" />
        <mxCell id="1" parent="0" />
        <mxCell id="bEMmbT1j2NkxgSVrj1q9-1" value="" style="strokeWidth=1;shadow=0;dashed=0;align=center;html=1;shape=mxgraph.mockup.containers.browserWindow;rSize=0;strokeColor2=#008cff;strokeColor3=#c4c4c4;mainText=,;recursiveResize=0;whiteSpace=wrap;spacingTop=0;horizontal=1;fontSize=20;" parent="1" vertex="1">
          <mxGeometry width="1600" height="900" as="geometry" />
        </mxCell>
        <mxCell id="bEMmbT1j2NkxgSVrj1q9-2" value="Locations" style="strokeWidth=1;shadow=0;dashed=0;align=center;html=1;shape=mxgraph.mockup.containers.anchor;fontSize=17;fontColor=#666666;align=left;whiteSpace=wrap;" parent="bEMmbT1j2NkxgSVrj1q9-1" vertex="1">
          <mxGeometry x="60" y="12" width="110" height="26" as="geometry" />
        </mxCell>
        <mxCell id="bEMmbT1j2NkxgSVrj1q9-3" value="https://www.devflix.com/locations" style="strokeWidth=1;shadow=0;dashed=0;align=center;html=1;shape=mxgraph.mockup.containers.anchor;rSize=0;fontSize=17;fontColor=#666666;align=left;" parent="bEMmbT1j2NkxgSVrj1q9-1" vertex="1">
          <mxGeometry x="130" y="60" width="250" height="26" as="geometry" />
        </mxCell>
        <mxCell id="bEMmbT1j2NkxgSVrj1q9-4" value="Chercher une location" style="strokeWidth=1;shadow=0;dashed=0;align=center;html=1;shape=mxgraph.mockup.forms.searchBox;strokeColor=#999999;mainText=;strokeColor2=#008cff;fontColor=#666666;fontSize=17;align=left;spacingLeft=3;whiteSpace=wrap;container=1;" parent="bEMmbT1j2NkxgSVrj1q9-1" vertex="1">
          <mxGeometry x="1380" y="223" width="200" height="30" as="geometry" />
        </mxCell>
        <mxCell id="bEMmbT1j2NkxgSVrj1q9-5" value="&lt;b&gt;&lt;u&gt;&lt;font style=&quot;font-size: 35px;&quot;&gt;Locations&lt;/font&gt;&lt;/u&gt;&lt;/b&gt;" style="text;html=1;strokeColor=none;fillColor=none;align=center;verticalAlign=middle;whiteSpace=wrap;rounded=0;" parent="bEMmbT1j2NkxgSVrj1q9-1" vertex="1">
          <mxGeometry x="20" y="270" width="180" height="60" as="geometry" />
        </mxCell>
        <mxCell id="bEMmbT1j2NkxgSVrj1q9-6" value="C24" style="strokeWidth=1;shadow=0;dashed=0;align=center;html=1;shape=mxgraph.mockup.text.callout;linkText=;textSize=17;textColor=#666666;callDir=SW;callStyle=line;fontSize=17;align=left;verticalAlign=bottom;strokeColor=#60A917;" parent="bEMmbT1j2NkxgSVrj1q9-1" vertex="1">
          <mxGeometry x="1100" y="250" width="100" height="30" as="geometry" />
        </mxCell>
        <mxCell id="bEMmbT1j2NkxgSVrj1q9-7" value="&lt;font color=&quot;#f0f0f0&quot;&gt;C23&lt;/font&gt;" style="strokeWidth=1;shadow=0;dashed=0;align=center;html=1;shape=mxgraph.mockup.text.callout;linkText=;textSize=17;textColor=#666666;callDir=SE;callStyle=line;fontSize=17;fontColor=#666666;align=right;verticalAlign=bottom;strokeColor=#60A917;" parent="bEMmbT1j2NkxgSVrj1q9-1" vertex="1">
          <mxGeometry x="1440" y="250" width="100" height="40" as="geometry" />
        </mxCell>
        <mxCell id="bEMmbT1j2NkxgSVrj1q9-8" value="&lt;font color=&quot;#f0f0f0&quot;&gt;C29&lt;/font&gt;" style="strokeWidth=1;shadow=0;dashed=0;align=center;html=1;shape=mxgraph.mockup.text.callout;linkText=;textSize=17;textColor=#666666;callDir=NW;callStyle=line;fontSize=17;fontColor=#666666;align=left;verticalAlign=top;strokeColor=#60A917;container=0;" parent="bEMmbT1j2NkxgSVrj1q9-1" vertex="1">
          <mxGeometry x="1070" y="190" width="110" height="40" as="geometry" />
        </mxCell>
        <mxCell id="bEMmbT1j2NkxgSVrj1q9-9" value="&lt;font color=&quot;#000000&quot;&gt;Filtre&lt;/font&gt;" style="strokeWidth=1;shadow=0;dashed=0;align=center;html=1;shape=mxgraph.mockup.forms.comboBox;strokeColor=#F0F0F0;fillColor=#008CFF;align=left;fillColor2=#aaddff;mainText=;fontColor=#ffffff;fontSize=17;spacingLeft=3;labelBackgroundColor=none;" parent="bEMmbT1j2NkxgSVrj1q9-1" vertex="1">
          <mxGeometry x="1160" y="223" width="150" height="30" as="geometry" />
        </mxCell>
        <mxCell id="bEMmbT1j2NkxgSVrj1q9-10" value="" style="sketch=0;aspect=fixed;pointerEvents=1;shadow=0;dashed=0;html=1;strokeColor=none;labelPosition=center;verticalLabelPosition=bottom;verticalAlign=top;align=center;fillColor=#008cff;shape=mxgraph.mscae.enterprise.filter;container=1;" parent="bEMmbT1j2NkxgSVrj1q9-1" vertex="1">
          <mxGeometry x="1260" y="236" width="18.89" height="17" as="geometry">
            <mxRectangle x="580" y="120" width="50" height="40" as="alternateBounds" />
          </mxGeometry>
        </mxCell>
        <mxCell id="bEMmbT1j2NkxgSVrj1q9-11" value="" style="shape=table;startSize=0;container=1;collapsible=0;childLayout=tableLayout;fontSize=18;" parent="bEMmbT1j2NkxgSVrj1q9-1" vertex="1">
          <mxGeometry x="20" y="340" width="1560" height="300" as="geometry" />
        </mxCell>
        <mxCell id="bEMmbT1j2NkxgSVrj1q9-12" style="shape=tableRow;horizontal=0;startSize=0;swimlaneHead=0;swimlaneBody=0;strokeColor=inherit;top=0;left=0;bottom=0;right=0;collapsible=0;dropTarget=0;fillColor=none;points=[[0,0.5],[1,0.5]];portConstraint=eastwest;fontSize=18;" parent="bEMmbT1j2NkxgSVrj1q9-11" vertex="1">
          <mxGeometry width="1560" height="54" as="geometry" />
        </mxCell>
        <mxCell id="bEMmbT1j2NkxgSVrj1q9-13" value="Client" style="shape=partialRectangle;html=1;whiteSpace=wrap;connectable=0;overflow=hidden;top=0;left=0;bottom=0;right=0;pointerEvents=1;fontSize=18;fillColor=#f5f5f5;strokeColor=#666666;strokeWidth=1;fillStyle=auto;fontColor=#333333;" parent="bEMmbT1j2NkxgSVrj1q9-12" vertex="1">
          <mxGeometry width="170" height="54" as="geometry">
            <mxRectangle width="170" height="54" as="alternateBounds" />
          </mxGeometry>
        </mxCell>
        <mxCell id="bEMmbT1j2NkxgSVrj1q9-14" value="Film(s) loué(s)" style="shape=partialRectangle;html=1;whiteSpace=wrap;connectable=0;strokeColor=#666666;overflow=hidden;fillColor=#f5f5f5;top=0;left=0;bottom=0;right=0;pointerEvents=1;fontSize=18;fontColor=#333333;" parent="bEMmbT1j2NkxgSVrj1q9-12" vertex="1">
          <mxGeometry x="170" width="680" height="54" as="geometry">
            <mxRectangle width="680" height="54" as="alternateBounds" />
          </mxGeometry>
        </mxCell>
        <mxCell id="bEMmbT1j2NkxgSVrj1q9-15" value="Date de début" style="shape=partialRectangle;html=1;whiteSpace=wrap;connectable=0;strokeColor=#666666;overflow=hidden;fillColor=#f5f5f5;top=0;left=0;bottom=0;right=0;pointerEvents=1;fontSize=18;fontColor=#333333;" parent="bEMmbT1j2NkxgSVrj1q9-12" vertex="1">
          <mxGeometry x="850" width="210" height="54" as="geometry">
            <mxRectangle width="210" height="54" as="alternateBounds" />
          </mxGeometry>
        </mxCell>
        <mxCell id="bEMmbT1j2NkxgSVrj1q9-16" value="Date d&#39;échéance" style="shape=partialRectangle;html=1;whiteSpace=wrap;connectable=0;strokeColor=#666666;overflow=hidden;fillColor=#f5f5f5;top=0;left=0;bottom=0;right=0;pointerEvents=1;fontSize=18;fontColor=#333333;" parent="bEMmbT1j2NkxgSVrj1q9-12" vertex="1">
          <mxGeometry x="1060" width="200" height="54" as="geometry">
            <mxRectangle width="200" height="54" as="alternateBounds" />
          </mxGeometry>
        </mxCell>
        <mxCell id="bEMmbT1j2NkxgSVrj1q9-17" value="Retard" style="shape=partialRectangle;html=1;whiteSpace=wrap;connectable=0;strokeColor=#666666;overflow=hidden;fillColor=#f5f5f5;top=0;left=0;bottom=0;right=0;pointerEvents=1;fontSize=18;fontColor=#333333;" parent="bEMmbT1j2NkxgSVrj1q9-12" vertex="1">
          <mxGeometry x="1260" width="150" height="54" as="geometry">
            <mxRectangle width="150" height="54" as="alternateBounds" />
          </mxGeometry>
        </mxCell>
        <mxCell id="bEMmbT1j2NkxgSVrj1q9-74" value="Confirmer retour en inventaire" style="shape=partialRectangle;html=1;whiteSpace=wrap;connectable=0;strokeColor=#666666;overflow=hidden;fillColor=#f5f5f5;top=0;left=0;bottom=0;right=0;pointerEvents=1;fontSize=18;fontColor=#333333;" parent="bEMmbT1j2NkxgSVrj1q9-12" vertex="1">
          <mxGeometry x="1410" width="150" height="54" as="geometry">
            <mxRectangle width="150" height="54" as="alternateBounds" />
          </mxGeometry>
        </mxCell>
        <mxCell id="bEMmbT1j2NkxgSVrj1q9-18" value="" style="shape=tableRow;horizontal=0;startSize=0;swimlaneHead=0;swimlaneBody=0;strokeColor=inherit;top=0;left=0;bottom=0;right=0;collapsible=0;dropTarget=0;fillColor=none;points=[[0,0.5],[1,0.5]];portConstraint=eastwest;fontSize=18;" parent="bEMmbT1j2NkxgSVrj1q9-11" vertex="1">
          <mxGeometry y="54" width="1560" height="56" as="geometry" />
        </mxCell>
        <mxCell id="bEMmbT1j2NkxgSVrj1q9-19" value="Georges Lucas" style="shape=partialRectangle;html=1;whiteSpace=wrap;connectable=0;strokeColor=inherit;overflow=hidden;fillColor=none;top=0;left=0;bottom=0;right=0;pointerEvents=1;fontSize=18;" parent="bEMmbT1j2NkxgSVrj1q9-18" vertex="1">
          <mxGeometry width="170" height="56" as="geometry">
            <mxRectangle width="170" height="56" as="alternateBounds" />
          </mxGeometry>
        </mxCell>
        <mxCell id="bEMmbT1j2NkxgSVrj1q9-20" value="Star Wars épisode I : La menace fantôme (1999)" style="shape=partialRectangle;html=1;whiteSpace=wrap;connectable=0;strokeColor=inherit;overflow=hidden;fillColor=none;top=0;left=0;bottom=0;right=0;pointerEvents=1;fontSize=18;" parent="bEMmbT1j2NkxgSVrj1q9-18" vertex="1">
          <mxGeometry x="170" width="680" height="56" as="geometry">
            <mxRectangle width="680" height="56" as="alternateBounds" />
          </mxGeometry>
        </mxCell>
        <mxCell id="bEMmbT1j2NkxgSVrj1q9-21" value="06-08-2024" style="shape=partialRectangle;html=1;whiteSpace=wrap;connectable=0;strokeColor=inherit;overflow=hidden;fillColor=none;top=0;left=0;bottom=0;right=0;pointerEvents=1;fontSize=18;" parent="bEMmbT1j2NkxgSVrj1q9-18" vertex="1">
          <mxGeometry x="850" width="210" height="56" as="geometry">
            <mxRectangle width="210" height="56" as="alternateBounds" />
          </mxGeometry>
        </mxCell>
        <mxCell id="bEMmbT1j2NkxgSVrj1q9-22" value="09-08-2024" style="shape=partialRectangle;html=1;whiteSpace=wrap;connectable=0;strokeColor=inherit;overflow=hidden;fillColor=none;top=0;left=0;bottom=0;right=0;pointerEvents=1;fontSize=18;" parent="bEMmbT1j2NkxgSVrj1q9-18" vertex="1">
          <mxGeometry x="1060" width="200" height="56" as="geometry">
            <mxRectangle width="200" height="56" as="alternateBounds" />
          </mxGeometry>
        </mxCell>
        <mxCell id="bEMmbT1j2NkxgSVrj1q9-23" style="shape=partialRectangle;html=1;whiteSpace=wrap;connectable=0;strokeColor=inherit;overflow=hidden;fillColor=none;top=0;left=0;bottom=0;right=0;pointerEvents=1;fontSize=18;" parent="bEMmbT1j2NkxgSVrj1q9-18" vertex="1">
          <mxGeometry x="1260" width="150" height="56" as="geometry">
            <mxRectangle width="150" height="56" as="alternateBounds" />
          </mxGeometry>
        </mxCell>
        <mxCell id="bEMmbT1j2NkxgSVrj1q9-75" style="shape=partialRectangle;html=1;whiteSpace=wrap;connectable=0;strokeColor=inherit;overflow=hidden;fillColor=none;top=0;left=0;bottom=0;right=0;pointerEvents=1;fontSize=18;" parent="bEMmbT1j2NkxgSVrj1q9-18" vertex="1">
          <mxGeometry x="1410" width="150" height="56" as="geometry">
            <mxRectangle width="150" height="56" as="alternateBounds" />
          </mxGeometry>
        </mxCell>
        <mxCell id="bEMmbT1j2NkxgSVrj1q9-24" value="" style="shape=tableRow;horizontal=0;startSize=0;swimlaneHead=0;swimlaneBody=0;strokeColor=inherit;top=0;left=0;bottom=0;right=0;collapsible=0;dropTarget=0;fillColor=none;points=[[0,0.5],[1,0.5]];portConstraint=eastwest;fontSize=18;" parent="bEMmbT1j2NkxgSVrj1q9-11" vertex="1">
          <mxGeometry y="110" width="1560" height="48" as="geometry" />
        </mxCell>
        <mxCell id="bEMmbT1j2NkxgSVrj1q9-25" value="Richard Turcotte" style="shape=partialRectangle;html=1;whiteSpace=wrap;connectable=0;overflow=hidden;top=0;left=0;bottom=0;right=0;pointerEvents=1;fontSize=18;fillColor=none;" parent="bEMmbT1j2NkxgSVrj1q9-24" vertex="1">
          <mxGeometry width="170" height="48" as="geometry">
            <mxRectangle width="170" height="48" as="alternateBounds" />
          </mxGeometry>
        </mxCell>
        <mxCell id="bEMmbT1j2NkxgSVrj1q9-26" value="Avengers : Infinity War (2018)" style="shape=partialRectangle;html=1;whiteSpace=wrap;connectable=0;overflow=hidden;top=0;left=0;bottom=0;right=0;pointerEvents=1;fontSize=18;fillColor=none;" parent="bEMmbT1j2NkxgSVrj1q9-24" vertex="1">
          <mxGeometry x="170" width="680" height="48" as="geometry">
            <mxRectangle width="680" height="48" as="alternateBounds" />
          </mxGeometry>
        </mxCell>
        <mxCell id="bEMmbT1j2NkxgSVrj1q9-27" value="02-08-2024" style="shape=partialRectangle;html=1;whiteSpace=wrap;connectable=0;overflow=hidden;top=0;left=0;bottom=0;right=0;pointerEvents=1;fontSize=18;fillColor=none;" parent="bEMmbT1j2NkxgSVrj1q9-24" vertex="1">
          <mxGeometry x="850" width="210" height="48" as="geometry">
            <mxRectangle width="210" height="48" as="alternateBounds" />
          </mxGeometry>
        </mxCell>
        <mxCell id="bEMmbT1j2NkxgSVrj1q9-28" value="05-08-2024" style="shape=partialRectangle;html=1;whiteSpace=wrap;connectable=0;overflow=hidden;top=0;left=0;bottom=0;right=0;pointerEvents=1;fontSize=18;fillColor=none;" parent="bEMmbT1j2NkxgSVrj1q9-24" vertex="1">
          <mxGeometry x="1060" width="200" height="48" as="geometry">
            <mxRectangle width="200" height="48" as="alternateBounds" />
          </mxGeometry>
        </mxCell>
        <mxCell id="bEMmbT1j2NkxgSVrj1q9-29" style="shape=partialRectangle;html=1;whiteSpace=wrap;connectable=0;overflow=hidden;top=0;left=0;bottom=0;right=0;pointerEvents=1;fontSize=18;fillColor=none;" parent="bEMmbT1j2NkxgSVrj1q9-24" vertex="1">
          <mxGeometry x="1260" width="150" height="48" as="geometry">
            <mxRectangle width="150" height="48" as="alternateBounds" />
          </mxGeometry>
        </mxCell>
        <mxCell id="bEMmbT1j2NkxgSVrj1q9-76" style="shape=partialRectangle;html=1;whiteSpace=wrap;connectable=0;overflow=hidden;top=0;left=0;bottom=0;right=0;pointerEvents=1;fontSize=18;fillColor=none;" parent="bEMmbT1j2NkxgSVrj1q9-24" vertex="1">
          <mxGeometry x="1410" width="150" height="48" as="geometry">
            <mxRectangle width="150" height="48" as="alternateBounds" />
          </mxGeometry>
        </mxCell>
        <mxCell id="bEMmbT1j2NkxgSVrj1q9-30" value="" style="shape=tableRow;horizontal=0;startSize=0;swimlaneHead=0;swimlaneBody=0;strokeColor=inherit;top=0;left=0;bottom=0;right=0;collapsible=0;dropTarget=0;fillColor=none;points=[[0,0.5],[1,0.5]];portConstraint=eastwest;fontSize=18;" parent="bEMmbT1j2NkxgSVrj1q9-11" vertex="1">
          <mxGeometry y="158" width="1560" height="48" as="geometry" />
        </mxCell>
        <mxCell id="bEMmbT1j2NkxgSVrj1q9-31" value="" style="shape=partialRectangle;html=1;whiteSpace=wrap;connectable=0;strokeColor=inherit;overflow=hidden;fillColor=none;top=0;left=0;bottom=0;right=0;pointerEvents=1;fontSize=18;" parent="bEMmbT1j2NkxgSVrj1q9-30" vertex="1">
          <mxGeometry width="170" height="48" as="geometry">
            <mxRectangle width="170" height="48" as="alternateBounds" />
          </mxGeometry>
        </mxCell>
        <mxCell id="bEMmbT1j2NkxgSVrj1q9-32" value="" style="shape=partialRectangle;html=1;whiteSpace=wrap;connectable=0;strokeColor=inherit;overflow=hidden;fillColor=none;top=0;left=0;bottom=0;right=0;pointerEvents=1;fontSize=18;" parent="bEMmbT1j2NkxgSVrj1q9-30" vertex="1">
          <mxGeometry x="170" width="680" height="48" as="geometry">
            <mxRectangle width="680" height="48" as="alternateBounds" />
          </mxGeometry>
        </mxCell>
        <mxCell id="bEMmbT1j2NkxgSVrj1q9-33" style="shape=partialRectangle;html=1;whiteSpace=wrap;connectable=0;strokeColor=inherit;overflow=hidden;fillColor=none;top=0;left=0;bottom=0;right=0;pointerEvents=1;fontSize=18;" parent="bEMmbT1j2NkxgSVrj1q9-30" vertex="1">
          <mxGeometry x="850" width="210" height="48" as="geometry">
            <mxRectangle width="210" height="48" as="alternateBounds" />
          </mxGeometry>
        </mxCell>
        <mxCell id="bEMmbT1j2NkxgSVrj1q9-34" style="shape=partialRectangle;html=1;whiteSpace=wrap;connectable=0;strokeColor=inherit;overflow=hidden;fillColor=none;top=0;left=0;bottom=0;right=0;pointerEvents=1;fontSize=18;" parent="bEMmbT1j2NkxgSVrj1q9-30" vertex="1">
          <mxGeometry x="1060" width="200" height="48" as="geometry">
            <mxRectangle width="200" height="48" as="alternateBounds" />
          </mxGeometry>
        </mxCell>
        <mxCell id="bEMmbT1j2NkxgSVrj1q9-35" style="shape=partialRectangle;html=1;whiteSpace=wrap;connectable=0;strokeColor=inherit;overflow=hidden;fillColor=none;top=0;left=0;bottom=0;right=0;pointerEvents=1;fontSize=18;" parent="bEMmbT1j2NkxgSVrj1q9-30" vertex="1">
          <mxGeometry x="1260" width="150" height="48" as="geometry">
            <mxRectangle width="150" height="48" as="alternateBounds" />
          </mxGeometry>
        </mxCell>
        <mxCell id="bEMmbT1j2NkxgSVrj1q9-77" style="shape=partialRectangle;html=1;whiteSpace=wrap;connectable=0;strokeColor=inherit;overflow=hidden;fillColor=none;top=0;left=0;bottom=0;right=0;pointerEvents=1;fontSize=18;" parent="bEMmbT1j2NkxgSVrj1q9-30" vertex="1">
          <mxGeometry x="1410" width="150" height="48" as="geometry">
            <mxRectangle width="150" height="48" as="alternateBounds" />
          </mxGeometry>
        </mxCell>
        <mxCell id="bEMmbT1j2NkxgSVrj1q9-36" style="shape=tableRow;horizontal=0;startSize=0;swimlaneHead=0;swimlaneBody=0;strokeColor=inherit;top=0;left=0;bottom=0;right=0;collapsible=0;dropTarget=0;fillColor=none;points=[[0,0.5],[1,0.5]];portConstraint=eastwest;fontSize=18;" parent="bEMmbT1j2NkxgSVrj1q9-11" vertex="1">
          <mxGeometry y="206" width="1560" height="45" as="geometry" />
        </mxCell>
        <mxCell id="bEMmbT1j2NkxgSVrj1q9-37" style="shape=partialRectangle;html=1;whiteSpace=wrap;connectable=0;strokeColor=inherit;overflow=hidden;fillColor=none;top=0;left=0;bottom=0;right=0;pointerEvents=1;fontSize=18;" parent="bEMmbT1j2NkxgSVrj1q9-36" vertex="1">
          <mxGeometry width="170" height="45" as="geometry">
            <mxRectangle width="170" height="45" as="alternateBounds" />
          </mxGeometry>
        </mxCell>
        <mxCell id="bEMmbT1j2NkxgSVrj1q9-38" style="shape=partialRectangle;html=1;whiteSpace=wrap;connectable=0;strokeColor=inherit;overflow=hidden;fillColor=none;top=0;left=0;bottom=0;right=0;pointerEvents=1;fontSize=18;" parent="bEMmbT1j2NkxgSVrj1q9-36" vertex="1">
          <mxGeometry x="170" width="680" height="45" as="geometry">
            <mxRectangle width="680" height="45" as="alternateBounds" />
          </mxGeometry>
        </mxCell>
        <mxCell id="bEMmbT1j2NkxgSVrj1q9-39" style="shape=partialRectangle;html=1;whiteSpace=wrap;connectable=0;strokeColor=inherit;overflow=hidden;fillColor=none;top=0;left=0;bottom=0;right=0;pointerEvents=1;fontSize=18;" parent="bEMmbT1j2NkxgSVrj1q9-36" vertex="1">
          <mxGeometry x="850" width="210" height="45" as="geometry">
            <mxRectangle width="210" height="45" as="alternateBounds" />
          </mxGeometry>
        </mxCell>
        <mxCell id="bEMmbT1j2NkxgSVrj1q9-40" style="shape=partialRectangle;html=1;whiteSpace=wrap;connectable=0;strokeColor=inherit;overflow=hidden;fillColor=none;top=0;left=0;bottom=0;right=0;pointerEvents=1;fontSize=18;" parent="bEMmbT1j2NkxgSVrj1q9-36" vertex="1">
          <mxGeometry x="1060" width="200" height="45" as="geometry">
            <mxRectangle width="200" height="45" as="alternateBounds" />
          </mxGeometry>
        </mxCell>
        <mxCell id="bEMmbT1j2NkxgSVrj1q9-41" style="shape=partialRectangle;html=1;whiteSpace=wrap;connectable=0;strokeColor=inherit;overflow=hidden;fillColor=none;top=0;left=0;bottom=0;right=0;pointerEvents=1;fontSize=18;" parent="bEMmbT1j2NkxgSVrj1q9-36" vertex="1">
          <mxGeometry x="1260" width="150" height="45" as="geometry">
            <mxRectangle width="150" height="45" as="alternateBounds" />
          </mxGeometry>
        </mxCell>
        <mxCell id="bEMmbT1j2NkxgSVrj1q9-78" style="shape=partialRectangle;html=1;whiteSpace=wrap;connectable=0;strokeColor=inherit;overflow=hidden;fillColor=none;top=0;left=0;bottom=0;right=0;pointerEvents=1;fontSize=18;" parent="bEMmbT1j2NkxgSVrj1q9-36" vertex="1">
          <mxGeometry x="1410" width="150" height="45" as="geometry">
            <mxRectangle width="150" height="45" as="alternateBounds" />
          </mxGeometry>
        </mxCell>
        <mxCell id="bEMmbT1j2NkxgSVrj1q9-42" style="shape=tableRow;horizontal=0;startSize=0;swimlaneHead=0;swimlaneBody=0;strokeColor=inherit;top=0;left=0;bottom=0;right=0;collapsible=0;dropTarget=0;fillColor=none;points=[[0,0.5],[1,0.5]];portConstraint=eastwest;fontSize=18;" parent="bEMmbT1j2NkxgSVrj1q9-11" vertex="1">
          <mxGeometry y="251" width="1560" height="49" as="geometry" />
        </mxCell>
        <mxCell id="bEMmbT1j2NkxgSVrj1q9-43" style="shape=partialRectangle;html=1;whiteSpace=wrap;connectable=0;strokeColor=inherit;overflow=hidden;fillColor=none;top=0;left=0;bottom=0;right=0;pointerEvents=1;fontSize=18;" parent="bEMmbT1j2NkxgSVrj1q9-42" vertex="1">
          <mxGeometry width="170" height="49" as="geometry">
            <mxRectangle width="170" height="49" as="alternateBounds" />
          </mxGeometry>
        </mxCell>
        <mxCell id="bEMmbT1j2NkxgSVrj1q9-44" style="shape=partialRectangle;html=1;whiteSpace=wrap;connectable=0;strokeColor=inherit;overflow=hidden;fillColor=none;top=0;left=0;bottom=0;right=0;pointerEvents=1;fontSize=18;" parent="bEMmbT1j2NkxgSVrj1q9-42" vertex="1">
          <mxGeometry x="170" width="680" height="49" as="geometry">
            <mxRectangle width="680" height="49" as="alternateBounds" />
          </mxGeometry>
        </mxCell>
        <mxCell id="bEMmbT1j2NkxgSVrj1q9-45" style="shape=partialRectangle;html=1;whiteSpace=wrap;connectable=0;strokeColor=inherit;overflow=hidden;fillColor=none;top=0;left=0;bottom=0;right=0;pointerEvents=1;fontSize=18;" parent="bEMmbT1j2NkxgSVrj1q9-42" vertex="1">
          <mxGeometry x="850" width="210" height="49" as="geometry">
            <mxRectangle width="210" height="49" as="alternateBounds" />
          </mxGeometry>
        </mxCell>
        <mxCell id="bEMmbT1j2NkxgSVrj1q9-46" style="shape=partialRectangle;html=1;whiteSpace=wrap;connectable=0;strokeColor=inherit;overflow=hidden;fillColor=none;top=0;left=0;bottom=0;right=0;pointerEvents=1;fontSize=18;" parent="bEMmbT1j2NkxgSVrj1q9-42" vertex="1">
          <mxGeometry x="1060" width="200" height="49" as="geometry">
            <mxRectangle width="200" height="49" as="alternateBounds" />
          </mxGeometry>
        </mxCell>
        <mxCell id="bEMmbT1j2NkxgSVrj1q9-47" style="shape=partialRectangle;html=1;whiteSpace=wrap;connectable=0;strokeColor=inherit;overflow=hidden;fillColor=none;top=0;left=0;bottom=0;right=0;pointerEvents=1;fontSize=18;" parent="bEMmbT1j2NkxgSVrj1q9-42" vertex="1">
          <mxGeometry x="1260" width="150" height="49" as="geometry">
            <mxRectangle width="150" height="49" as="alternateBounds" />
          </mxGeometry>
        </mxCell>
        <mxCell id="bEMmbT1j2NkxgSVrj1q9-79" style="shape=partialRectangle;html=1;whiteSpace=wrap;connectable=0;strokeColor=inherit;overflow=hidden;fillColor=none;top=0;left=0;bottom=0;right=0;pointerEvents=1;fontSize=18;" parent="bEMmbT1j2NkxgSVrj1q9-42" vertex="1">
          <mxGeometry x="1410" width="150" height="49" as="geometry">
            <mxRectangle width="150" height="49" as="alternateBounds" />
          </mxGeometry>
        </mxCell>
        <mxCell id="bEMmbT1j2NkxgSVrj1q9-48" value="Mentions Legales" style="fillColor=none;strokeColor=none;html=1;fontColor=#0057D8;align=center;verticalAlign=middle;fontStyle=0;fontSize=17;" parent="bEMmbT1j2NkxgSVrj1q9-1" vertex="1">
          <mxGeometry x="105" y="825" width="250" height="75" as="geometry" />
        </mxCell>
        <mxCell id="bEMmbT1j2NkxgSVrj1q9-49" value="FAQ" style="fillColor=none;strokeColor=none;html=1;fontColor=#0057D8;align=center;verticalAlign=middle;fontStyle=0;fontSize=17;fontFamily=Helvetica;" parent="bEMmbT1j2NkxgSVrj1q9-1" vertex="1">
          <mxGeometry x="495" y="825" width="250" height="75" as="geometry" />
        </mxCell>
        <mxCell id="bEMmbT1j2NkxgSVrj1q9-50" value="Contacts" style="fillColor=none;strokeColor=none;html=1;fontColor=#0057D8;align=center;verticalAlign=middle;fontStyle=0;fontSize=17;fontFamily=Helvetica;" parent="bEMmbT1j2NkxgSVrj1q9-1" vertex="1">
          <mxGeometry x="875" y="825" width="250" height="75" as="geometry" />
        </mxCell>
        <mxCell id="bEMmbT1j2NkxgSVrj1q9-51" value="Carrière&amp;nbsp;" style="fillColor=none;strokeColor=none;html=1;fontColor=#0057D8;align=center;verticalAlign=middle;fontStyle=0;fontSize=17;fontFamily=Helvetica;" parent="bEMmbT1j2NkxgSVrj1q9-1" vertex="1">
          <mxGeometry x="1245" y="825" width="250" height="75" as="geometry" />
        </mxCell>
        <mxCell id="bEMmbT1j2NkxgSVrj1q9-52" value="Devflix" style="text;html=1;points=[];align=left;verticalAlign=top;spacingTop=-4;fontSize=45;fontFamily=Verdana;" parent="bEMmbT1j2NkxgSVrj1q9-1" vertex="1">
          <mxGeometry x="50" y="150" width="340" height="50" as="geometry" />
        </mxCell>
        <mxCell id="bEMmbT1j2NkxgSVrj1q9-53" value="&lt;font style=&quot;font-size: 18px;&quot;&gt;Renouveler&lt;/font&gt;" style="strokeWidth=1;shadow=0;dashed=0;align=center;html=1;shape=mxgraph.mockup.buttons.button;strokeColor=#B20000;mainText=;buttonStyle=round;fontSize=17;fontStyle=1;fillColor=#e51400;whiteSpace=wrap;fontColor=#ffffff;" parent="bEMmbT1j2NkxgSVrj1q9-1" vertex="1">
          <mxGeometry x="1290" y="460" width="130" height="30" as="geometry" />
        </mxCell>
        <mxCell id="bEMmbT1j2NkxgSVrj1q9-54" value="C21" style="strokeWidth=1;shadow=0;dashed=0;align=center;html=1;shape=mxgraph.mockup.text.callout;linkText=;textSize=17;textColor=#666666;callDir=SE;callStyle=line;fontSize=17;fontColor=#F0F0F0;align=right;verticalAlign=bottom;strokeColor=#60A917;" parent="bEMmbT1j2NkxgSVrj1q9-1" vertex="1">
          <mxGeometry x="1325" y="490" width="90" height="40" as="geometry" />
        </mxCell>
        <mxCell id="bEMmbT1j2NkxgSVrj1q9-55" value="C19" style="strokeWidth=1;shadow=0;dashed=0;align=center;html=1;shape=mxgraph.mockup.text.callout;linkText=;textSize=17;textColor=#666666;callDir=NE;callStyle=line;fontSize=17;align=right;verticalAlign=top;strokeColor=#005700;fillColor=#008a00;fontColor=#ffffff;" parent="bEMmbT1j2NkxgSVrj1q9-1" vertex="1">
          <mxGeometry x="1330" y="-80" width="160" height="230" as="geometry" />
        </mxCell>
        <mxCell id="bEMmbT1j2NkxgSVrj1q9-56" value="C17" style="strokeWidth=1;shadow=0;dashed=0;align=center;html=1;shape=mxgraph.mockup.text.callout;linkText=;textSize=17;textColor=#666666;callDir=NE;callStyle=line;fontSize=17;align=right;verticalAlign=top;strokeColor=#005700;fillColor=#008a00;fontColor=#ffffff;" parent="bEMmbT1j2NkxgSVrj1q9-1" vertex="1">
          <mxGeometry x="1210" y="-80" width="160" height="230" as="geometry" />
        </mxCell>
        <mxCell id="bEMmbT1j2NkxgSVrj1q9-57" value="C1" style="strokeWidth=1;shadow=0;dashed=0;align=center;html=1;shape=mxgraph.mockup.text.callout;linkText=;textSize=17;textColor=#666666;callDir=NE;callStyle=line;fontSize=17;align=right;verticalAlign=top;strokeColor=#005700;fillColor=#008a00;fontColor=#ffffff;" parent="bEMmbT1j2NkxgSVrj1q9-1" vertex="1">
          <mxGeometry x="980" y="-80" width="160" height="230" as="geometry" />
        </mxCell>
        <mxCell id="bEMmbT1j2NkxgSVrj1q9-80" value="C28" style="strokeWidth=1;shadow=0;dashed=0;align=center;html=1;shape=mxgraph.mockup.text.callout;linkText=;textSize=17;textColor=#666666;callDir=SE;callStyle=line;fontSize=17;fontColor=#F0F0F0;align=right;verticalAlign=bottom;strokeColor=#60A917;" parent="bEMmbT1j2NkxgSVrj1q9-1" vertex="1">
          <mxGeometry x="1470" y="490" width="90" height="40" as="geometry" />
        </mxCell>
        <mxCell id="bEMmbT1j2NkxgSVrj1q9-81" value="&lt;font style=&quot;font-size: 18px;&quot;&gt;Confirmer&lt;/font&gt;" style="strokeWidth=1;shadow=0;dashed=0;align=center;html=1;shape=mxgraph.mockup.buttons.button;strokeColor=#2D7600;fontColor=#ffffff;mainText=;buttonStyle=round;fontSize=17;fontStyle=1;fillColor=#60a917;whiteSpace=wrap;" parent="bEMmbT1j2NkxgSVrj1q9-1" vertex="1">
          <mxGeometry x="1440" y="460" width="130" height="30" as="geometry" />
        </mxCell>
        <mxCell id="bEMmbT1j2NkxgSVrj1q9-83" value="&lt;font style=&quot;font-size: 18px;&quot;&gt;Confirmer&lt;/font&gt;" style="strokeWidth=1;shadow=0;dashed=0;align=center;html=1;shape=mxgraph.mockup.buttons.button;strokeColor=#2D7600;fontColor=#ffffff;mainText=;buttonStyle=round;fontSize=17;fontStyle=1;fillColor=#60a917;whiteSpace=wrap;" parent="bEMmbT1j2NkxgSVrj1q9-1" vertex="1">
          <mxGeometry x="1440" y="410" width="130" height="30" as="geometry" />
        </mxCell>
        <mxCell id="bEMmbT1j2NkxgSVrj1q9-84" value="&lt;font style=&quot;font-size: 18px;&quot;&gt;Renouveler&lt;/font&gt;" style="strokeWidth=1;shadow=0;dashed=0;align=center;html=1;shape=mxgraph.mockup.buttons.button;strokeColor=#B20000;mainText=;buttonStyle=round;fontSize=17;fontStyle=1;fillColor=#e51400;whiteSpace=wrap;fontColor=#ffffff;" parent="bEMmbT1j2NkxgSVrj1q9-1" vertex="1">
          <mxGeometry x="1290" y="410" width="130" height="30" as="geometry" />
        </mxCell>
        <mxCell id="bEMmbT1j2NkxgSVrj1q9-61" value="" style="group;movable=1;resizable=1;rotatable=1;deletable=1;editable=1;locked=0;connectable=1;" parent="1" vertex="1" connectable="0">
          <mxGeometry x="780" y="-90" width="930" height="280" as="geometry" />
        </mxCell>
        <mxCell id="bEMmbT1j2NkxgSVrj1q9-62" value="C4" style="strokeWidth=1;shadow=0;dashed=0;align=center;html=1;shape=mxgraph.mockup.text.callout;linkText=;textSize=17;textColor=#666666;callDir=NE;callStyle=line;fontSize=17;align=right;verticalAlign=top;strokeColor=#005700;fillColor=#008a00;fontColor=#ffffff;" parent="bEMmbT1j2NkxgSVrj1q9-61" vertex="1">
          <mxGeometry x="310" width="160" height="230" as="geometry" />
        </mxCell>
        <mxCell id="bEMmbT1j2NkxgSVrj1q9-63" value="" style="verticalLabelPosition=bottom;shadow=0;dashed=0;align=center;html=1;verticalAlign=top;strokeWidth=1;shape=mxgraph.mockup.misc.shoppingCart;strokeColor=#999999;" parent="bEMmbT1j2NkxgSVrj1q9-61" vertex="1">
          <mxGeometry x="760" y="220" width="50" height="50" as="geometry" />
        </mxCell>
        <mxCell id="bEMmbT1j2NkxgSVrj1q9-64" value="C46" style="strokeWidth=1;shadow=0;dashed=0;align=center;html=1;shape=mxgraph.mockup.text.callout;linkText=;textSize=17;textColor=#666666;callDir=NE;callStyle=line;fontSize=17;align=right;verticalAlign=top;strokeColor=#005700;fillColor=#008a00;fontColor=#ffffff;" parent="bEMmbT1j2NkxgSVrj1q9-61" vertex="1">
          <mxGeometry x="660" width="160" height="230" as="geometry" />
        </mxCell>
        <mxCell id="bEMmbT1j2NkxgSVrj1q9-65" value="C9" style="strokeWidth=1;shadow=0;dashed=0;align=center;html=1;shape=mxgraph.mockup.text.callout;linkText=;textSize=17;textColor=#666666;callDir=NE;callStyle=line;fontSize=17;align=right;verticalAlign=top;strokeColor=#005700;fillColor=#008a00;fontColor=#ffffff;container=0;" parent="bEMmbT1j2NkxgSVrj1q9-61" vertex="1">
          <mxGeometry x="780" width="160" height="230" as="geometry" />
        </mxCell>
        <mxCell id="bEMmbT1j2NkxgSVrj1q9-66" value="" style="swimlane;shape=mxgraph.bootstrap.anchor;strokeColor=#999999;fillColor=#ffffff;fontColor=#666666;childLayout=stackLayout;horizontal=0;startSize=0;horizontalStack=1;resizeParent=1;resizeParentMax=0;resizeLast=0;collapsible=0;marginBottom=0;whiteSpace=wrap;html=1;" parent="bEMmbT1j2NkxgSVrj1q9-61" vertex="1">
          <mxGeometry x="130" y="230" width="600" height="30" as="geometry" />
        </mxCell>
        <mxCell id="bEMmbT1j2NkxgSVrj1q9-67" value="Catalogue" style="text;strokeColor=inherit;align=center;verticalAlign=middle;spacingLeft=10;spacingRight=10;overflow=hidden;points=[[0,0.5],[1,0.5]];portConstraint=eastwest;rotatable=0;whiteSpace=wrap;html=1;fillColor=inherit;fontColor=inherit;fontSize=17;" parent="bEMmbT1j2NkxgSVrj1q9-66" vertex="1">
          <mxGeometry width="120" height="30" as="geometry" />
        </mxCell>
        <mxCell id="bEMmbT1j2NkxgSVrj1q9-68" value="Acteurs" style="text;strokeColor=inherit;align=center;verticalAlign=middle;spacingLeft=10;spacingRight=10;overflow=hidden;points=[[0,0.5],[1,0.5]];portConstraint=eastwest;rotatable=0;whiteSpace=wrap;html=1;fillColor=inherit;fontColor=inherit;fontSize=17;" parent="bEMmbT1j2NkxgSVrj1q9-66" vertex="1">
          <mxGeometry x="120" width="120" height="30" as="geometry" />
        </mxCell>
        <mxCell id="bEMmbT1j2NkxgSVrj1q9-69" value="Mon compte" style="text;strokeColor=inherit;align=center;verticalAlign=middle;spacingLeft=10;spacingRight=10;overflow=hidden;points=[[0,0.5],[1,0.5]];portConstraint=eastwest;rotatable=0;whiteSpace=wrap;html=1;fillColor=inherit;fontColor=inherit;fontSize=17;" parent="bEMmbT1j2NkxgSVrj1q9-66" vertex="1">
          <mxGeometry x="240" width="120" height="30" as="geometry" />
        </mxCell>
        <mxCell id="bEMmbT1j2NkxgSVrj1q9-70" value="Locations" style="text;strokeColor=#23445d;align=center;verticalAlign=middle;spacingLeft=10;spacingRight=10;overflow=hidden;points=[[0,0.5],[1,0.5]];portConstraint=eastwest;rotatable=0;whiteSpace=wrap;html=1;fillColor=#bac8d3;fontSize=17;" parent="bEMmbT1j2NkxgSVrj1q9-66" vertex="1">
          <mxGeometry x="360" width="120" height="30" as="geometry" />
        </mxCell>
        <mxCell id="bEMmbT1j2NkxgSVrj1q9-71" value="Déconnexion&amp;nbsp;" style="text;strokeColor=#6F0000;align=center;verticalAlign=middle;spacingLeft=10;spacingRight=10;overflow=hidden;points=[[0,0.5],[1,0.5]];portConstraint=eastwest;rotatable=0;whiteSpace=wrap;html=1;fillColor=#a20025;fontColor=#ffffff;fontSize=17;" parent="bEMmbT1j2NkxgSVrj1q9-66" vertex="1">
          <mxGeometry x="480" width="120" height="30" as="geometry" />
        </mxCell>
        <mxCell id="bEMmbT1j2NkxgSVrj1q9-72" value="" style="labelPosition=right;align=left;strokeWidth=1;shape=mxgraph.mockup.markup.curlyBrace;html=1;shadow=0;dashed=0;strokeColor=#999999;direction=south;flipH=1;" parent="1" vertex="1">
          <mxGeometry x="1610" y="410" width="40" height="120" as="geometry" />
        </mxCell>
        <mxCell id="bEMmbT1j2NkxgSVrj1q9-73" value="&lt;font style=&quot;font-size: 18px;&quot;&gt;Le bouton rouge &quot;Renouveler&quot; pousse la date d&#39;échéance 3 jours plus tard.&lt;br&gt;Le bouton vert &quot;Confimer&quot; sert à confimer le retour du/des film(s) dans l&#39;inventaire.&lt;br&gt;&lt;/font&gt;" style="text;html=1;strokeColor=none;fillColor=none;align=left;verticalAlign=middle;whiteSpace=wrap;rounded=0;" parent="1" vertex="1">
          <mxGeometry x="1650" y="422.5" width="400" height="95" as="geometry" />
        </mxCell>
        <mxCell id="svUkmwiJ7DiEOeQE-FV4-1" value="Vue : Page de locations et de retours&lt;br&gt;Auteur : Josué Therrien&lt;br&gt;Date de création : 2024-08-11&lt;br&gt;Date mise à jour : 2024-08-12" style="rounded=0;whiteSpace=wrap;html=1;align=left;fillColor=#4D4D4D;strokeColor=#F04624;" vertex="1" parent="1">
          <mxGeometry x="210" y="-140" width="419" height="100" as="geometry" />
        </mxCell>
      </root>
    </mxGraphModel>
  </diagram>
</mxfile>
